PathFileType	4	(x/y/z)	Passive_Pref0006.trc
DataRate	CameraRate	NumFrames	NumMarkers	Units	OrigDataRate	OrigDataStartFrame	OrigNumFrames
240	240	7	50	mm	240	226	300
Frame#	Time	R_AC			L_AC			HEAD			STERN			C7			L_IC			R_IC			L_ASIS			R_ASIS			L_GT			R_GT			R_PSIS			L_PSIS			SACRAL			L_LAT_KNEE			L_MED_KNEE			R_LAT_KNEE			R_MED_KNEE			L_LAT_ANK			L_MED_ANK			R_LAT_ANK			R_MED_ANK			L_THIGH_PROX_POST			L_THIGH_PROX_ANT			L_THIGH_DIST_ANT			L_THIGH_DIST_POST			R_THIGH_PROX_POST			R_THIGH_PROX_ANT			R_THIGH_DIST_ANT			R_THIGH_DIST_POST			L_SHANK_PROX_POST			L_SHANK_PROX_ANT			L_SHANK_DIST_ANT			L_SHANK_DIST_POST			R_SHANK_PROX_POST			R_SHANK_PROX_ANT			R_SHANK_DIST_ANT			R_SHANK_DIST_POST			L_HEEL_LAT			L_HEEL_SUP			L_HEEL_MED			R_HEEL_LAT			R_HEEL_SUP			R_HEEL_MED			L_1ST_MET			L_5TH_MET			L_TOE			R_1ST_MET			R_5TH_MET			R_TOE			
		X1	Y1	Z1	X2	Y2	Z2	X3	Y3	Z3	X4	Y4	Z4	X5	Y5	Z5	X6	Y6	Z6	X7	Y7	Z7	X8	Y8	Z8	X9	Y9	Z9	X10	Y10	Z10	X11	Y11	Z11	X12	Y12	Z12	X13	Y13	Z13	X14	Y14	Z14	X15	Y15	Z15	X16	Y16	Z16	X17	Y17	Z17	X18	Y18	Z18	X19	Y19	Z19	X20	Y20	Z20	X21	Y21	Z21	X22	Y22	Z22	X23	Y23	Z23	X24	Y24	Z24	X25	Y25	Z25	X26	Y26	Z26	X27	Y27	Z27	X28	Y28	Z28	X29	Y29	Z29	X30	Y30	Z30	X31	Y31	Z31	X32	Y32	Z32	X33	Y33	Z33	X34	Y34	Z34	X35	Y35	Z35	X36	Y36	Z36	X37	Y37	Z37	X38	Y38	Z38	X39	Y39	Z39	X40	Y40	Z40	X41	Y41	Z41	X42	Y42	Z42	X43	Y43	Z43	X44	Y44	Z44	X45	Y45	Z45	X46	Y46	Z46	X47	Y47	Z47	X48	Y48	Z48	X49	Y49	Z49	X50	Y50	Z50	

226	0.94064	447.32	1533.4	509.16	396.88	1552.3	107.48	487.62	1856.1	324.78	509.33	1491.7	307.72	359.71	1583.4	321.62	386.41	1110.4	149.6	428.98	1133.1	488.06	467.13	1040.4	177.76	492.56	1047.4	446.83	371.17	953.63	130.72	396.17	962.93	497.55	268.27	1039.5	369.84	260.41	1035	284.26	255.21	1003.6	327.46	480.24	562.78	125.69	513.89	552.98	259.65	439.29	544.78	447.57	440.56	551.92	312.46	173.27	239.25	160.06	166.63	242.48	242.55	351.77	93.527	375.09	385.93	120	275.45	452.52	798.25	124.05	515.4	810.03	147.07	533.61	739.42	148.28	476.03	724.87	125.04	367.5	810.04	473.94	428.3	817.33	495.89	430.18	742.49	482.64	377.89	737.8	462.5	449.86	517.3	138.95	509.77	505.67	146.75	470.66	451.7	161.5	415.39	465.28	143.19	372.35	386.92	441.95	429.93	381.79	437.26	420.12	308.2	421.5	364.43	310.92	424.02	84.861	221.86	161.6	88.114	251.64	195.39	74.296	226.24	231.67	276.66	54.687	331.81	281.36	83.153	296.91	309.51	55.135	272.51	238.9	89.842	270.31	236.61	92.672	149.48	303.44	72.265	229.03	520.79	45.539	292.97	473.36	36.185	406.13	567.21	50.922	353.62
227	0.94482	452.3	1534.2	509.02	401.72	1552.9	107.33	492.43	1856.8	324.48	514.17	1492.4	307.62	364.59	1584.2	321.5	391.52	1111.3	149.58	433.15	1133.7	488.12	472.27	1041.5	178.08	496.65	1047.8	447.27	376.81	954.61	130.45	399.63	963.55	497.38	272.64	1040.2	369.2	264.87	1035.7	283.66	259.75	1004.4	326.77	489.01	564.3	125.88	522.11	554.98	259.99	440.16	545.22	447.78	442	552.25	312.62	187.23	235.79	158.52	180.07	238.77	240.88	352.03	93.899	375.15	386.33	120.5	275.66	459.36	799.73	124.08	522.07	812.12	147.76	540.77	741.54	148.8	483.42	726.61	125.2	370.08	810.96	473.58	430.85	817.91	495.83	432.36	743.06	482.62	380.13	738.66	462.23	459.31	518.31	138.96	519.38	507.67	147.07	481.07	453.07	161.6	425.68	465.75	142.99	372.9	387.54	442.01	430.49	382.27	437.5	420.58	308.69	421.77	364.89	311.53	424.13	99.115	216.94	159.6	101.64	246.78	193.39	88.165	221.09	229.55	276.83	55.414	331.87	281.67	83.901	297.04	310.23	55.754	272.53	254.68	87.454	268.97	252.99	90.287	148.22	319.71	70.942	228.09	520.92	45.533	293.07	473.42	36.126	406.21	567.36	50.658	353.71
228	0.949	457.25	1535	508.87	406.59	1553.5	107.18	497.25	1857.5	324.18	519.01	1493	307.53	369.48	1584.9	321.38	396.65	1112.2	149.54	437.29	1134.3	488.17	477.4	1042.4	178.38	500.73	1048.3	447.69	382.43	955.56	130.18	403.07	964.16	497.19	276.99	1040.9	368.53	269.33	1036.3	283.04	264.27	1005.1	326.06	497.68	565.78	126.12	530.21	556.97	260.38	441.04	545.66	447.97	443.46	552.59	312.76	201.32	232.24	157.01	193.65	234.96	239.23	352.26	94.297	375.21	386.75	121.01	275.87	466.12	801.18	124.13	528.69	814.17	148.5	547.82	743.6	149.36	490.74	728.3	125.39	372.65	811.88	473.2	433.39	818.49	495.75	434.52	743.63	482.59	382.38	739.52	461.94	468.69	519.29	139.03	528.91	509.65	147.46	491.42	454.42	161.77	435.93	466.19	142.84	373.46	388.17	442.07	431.06	382.76	437.74	421.05	309.18	422.03	365.35	312.16	424.23	113.55	211.89	157.61	115.32	241.79	191.39	102.21	215.78	227.43	277.01	56.165	331.94	282.01	84.672	297.18	310.99	56.39	272.55	270.65	85.026	267.67	269.57	87.884	147.01	336.16	69.631	227.22	521.06	45.528	293.17	473.48	36.07	406.3	567.51	50.398	353.81
229	0.95318	462.17	1535.7	508.73	411.5	1554.1	107.02	502.09	1858.1	323.89	523.86	1493.6	307.45	374.37	1585.6	321.24	401.8	1113	149.48	441.38	1134.9	488.19	482.51	1043.4	178.67	504.79	1048.7	448.09	388.03	956.49	129.91	406.49	964.76	496.98	281.31	1041.6	367.85	273.78	1037	282.41	268.78	1005.7	325.34	506.25	567.23	126.41	538.2	558.92	260.84	441.92	546.12	448.15	444.93	552.94	312.91	215.56	228.6	155.54	207.35	231.04	237.6	352.47	94.718	375.27	387.18	121.53	276.08	472.82	802.58	124.19	535.26	816.18	149.26	554.78	745.6	149.96	497.98	729.94	125.61	375.21	812.79	472.79	435.91	819.07	495.66	436.68	744.2	482.56	384.63	740.38	461.62	478	520.23	139.15	538.36	511.63	147.92	501.73	455.77	162.01	446.14	466.58	142.76	374.02	388.81	442.12	431.62	383.25	437.97	421.53	309.68	422.29	365.82	312.79	424.32	128.16	206.72	155.65	129.16	236.66	189.41	116.43	210.35	225.32	277.19	56.935	332	282.38	85.463	297.31	311.76	57.044	272.55	286.8	82.57	266.4	286.34	85.476	145.87	352.77	68.344	226.42	521.21	45.525	293.27	473.55	36.017	406.38	567.66	50.14	353.9
230	0.95736	467.07	1536.5	508.58	416.44	1554.7	106.86	506.93	1858.7	323.59	528.7	1494.1	307.37	379.26	1586.2	321.1	406.98	1113.8	149.39	445.45	1135.5	488.2	487.6	1044.3	178.94	508.84	1049.1	448.46	393.6	957.38	129.64	409.91	965.35	496.75	285.61	1042.3	367.16	278.25	1037.6	281.75	273.26	1006.4	324.6	514.71	568.63	126.76	546.07	560.85	261.35	442.81	546.58	448.32	446.42	553.29	313.05	229.94	224.9	154.1	221.18	227.05	236.01	352.64	95.164	375.34	387.62	122.05	276.28	479.45	803.93	124.28	541.76	818.13	150.05	561.64	747.53	150.58	505.13	731.54	125.84	377.77	813.7	472.38	438.44	819.65	495.56	438.83	744.77	482.52	386.88	741.24	461.29	487.23	521.13	139.32	547.72	513.6	148.44	511.99	457.1	162.31	456.31	466.95	142.72	374.59	389.45	442.16	432.2	383.75	438.2	422	310.19	422.54	366.28	313.44	424.41	142.96	201.45	153.72	143.15	231.43	187.45	130.84	204.79	223.22	277.38	57.723	332.07	282.78	86.27	297.45	312.52	57.719	272.56	303.13	80.097	265.18	303.29	83.079	144.79	369.55	67.093	225.71	521.35	45.524	293.37	473.62	35.965	406.46	567.82	49.886	353.99
231	0.96154	471.94	1537.1	508.44	421.42	1555.2	106.7	511.78	1859.3	323.29	533.55	1494.7	307.3	384.15	1586.8	320.95	412.18	1114.6	149.27	449.5	1136	488.19	492.68	1045.2	179.2	512.88	1049.5	448.81	399.15	958.25	129.37	413.32	965.93	496.5	289.89	1043	366.45	282.73	1038.2	281.07	277.72	1007.1	323.85	523.07	570	127.15	553.83	562.73	261.91	443.72	547.04	448.48	447.93	553.65	313.19	244.45	221.14	152.71	235.14	222.99	234.46	352.78	95.635	375.41	388.06	122.58	276.48	486	805.24	124.39	548.19	820.01	150.84	568.41	749.4	151.23	512.2	733.08	126.1	380.35	814.6	471.95	440.95	820.22	495.43	440.97	745.33	482.47	389.14	742.09	460.95	496.39	521.99	139.54	557	515.56	149.02	522.19	458.42	162.66	466.44	467.27	142.75	375.17	390.11	442.19	432.78	384.26	438.42	422.49	310.7	422.79	366.75	314.09	424.49	157.93	196.09	151.81	157.31	226.1	185.52	145.42	199.13	221.14	277.58	58.525	332.13	283.19	87.09	297.59	313.25	58.422	272.57	319.64	77.619	264.02	320.43	80.705	143.79	386.47	65.889	225.07	521.51	45.524	293.46	473.69	35.916	406.53	567.98	49.634	354.09
232	0.96572	476.78	1537.8	508.29	426.42	1555.8	106.53	516.64	1859.8	323	538.39	1495.1	307.24	389.04	1587.4	320.79	417.4	1115.3	149.13	453.53	1136.6	488.16	497.74	1046	179.44	516.9	1049.8	449.13	404.67	959.08	129.1	416.73	966.49	496.23	294.16	1043.7	365.72	287.22	1038.9	280.37	282.17	1007.8	323.08	531.33	571.32	127.6	561.47	564.57	262.53	444.63	547.51	448.63	449.46	554.01	313.34	259.1	217.33	151.37	249.23	218.88	232.96	352.89	96.129	375.48	388.51	123.12	276.67	492.47	806.5	124.51	554.55	821.83	151.62	575.09	751.19	151.9	519.18	734.56	126.38	382.93	815.49	471.51	443.46	820.78	495.3	443.12	745.89	482.42	391.4	742.93	460.6	505.47	522.8	139.8	566.18	517.5	149.65	532.34	459.72	163.08	476.52	467.56	142.83	375.75	390.77	442.22	433.37	384.77	438.63	422.98	311.21	423.03	367.22	314.75	424.56	173.08	190.67	149.95	171.63	220.68	183.62	160.18	193.39	219.09	277.79	59.338	332.19	283.62	87.921	297.73	313.92	59.157	272.57	336.32	75.149	262.92	337.73	78.37	142.86	403.54	64.744	224.52	521.66	45.527	293.56	473.77	35.869	406.6	568.14	49.387	354.18
